# xmcd
#
# Track frame offsets:
#	150
#	18865
#	32567
#	51083
#	65394
#	78711
#	90003
#	106935
#	120218
#	134668
#
# Disc length: 2050 seconds
#
# Revision: 1
# Processed by: cddbd v1.5.2PL0 Copyright (c) Steve Scherf et al.
# Submitted via: audiograbber 1.83.01
#
DISCID=7008000a
DTITLE=De Goedheid - The Volga Boatman
DYEAR=2012
DGENRE=Pop
TTITLE0=De Goedheid - De ontmoeting
TTITLE1=De Goedheid - Volga Boatman
TTITLE2=De Goedheid - Mistig Blauw
TTITLE3=De Goedheid - Liefdesboek
TTITLE4=De Goedheid - Narigheid
TTITLE5=De Goedheid - Zonnige kant
TTITLE6=De Goedheid - Vredestichter
TTITLE7=De Goedheid - Kanaries
TTITLE8=De Goedheid - Hart zo groot
TTITLE9=De Goedheid - De goedheud
EXTD=
EXTT0=
EXTT1=
EXTT2=
EXTT3=
EXTT4=
EXTT5=
EXTT6=
EXTT7=
EXTT8=
EXTT9=
PLAYORDER=
